<?xml version="1.0" standalone="no"?>
<!DOCTYPE svg PUBLIC "-//W3C//DTD SVG 20010904//EN"
 "http://www.w3.org/TR/2001/REC-SVG-20010904/DTD/svg10.dtd">
<svg version="1.0" xmlns="http://www.w3.org/2000/svg"
 width="669.000000pt" height="669.000000pt" viewBox="0 0 669.000000 669.000000"
 preserveAspectRatio="xMidYMid meet">
<metadata>
Created by potrace 1.11, written by Peter Selinger 2001-2013
</metadata>
<g transform="translate(0.000000,669.000000) scale(0.100000,-0.100000)"
fill="#000000" stroke="none">
<path d="M385 6684 c-99 -21 -195 -62 -240 -101 -69 -61 -113 -149 -134 -269
-8 -43 -10 -910 -9 -3010 3 -2790 4 -2952 21 -3001 54 -159 159 -252 325 -288
98 -21 5892 -22 5992 -1 104 22 191 70 244 133 36 43 83 148 95 213 11 58 11
5951 0 5980 -3 8 -11 35 -18 59 -19 65 -75 153 -123 190 -30 24 -115 66 -153
76 -16 5 -37 11 -45 14 -17 6 -5924 11 -5955 5z"/>
</g>
</svg>
