<?xml version="1.0" standalone="no"?>
<!DOCTYPE svg PUBLIC "-//W3C//DTD SVG 20010904//EN"
 "http://www.w3.org/TR/2001/REC-SVG-20010904/DTD/svg10.dtd">
<svg version="1.0" xmlns="http://www.w3.org/2000/svg"
 width="1179.000000pt" height="1179.000000pt" viewBox="0 0 1179.000000 1179.000000"
 preserveAspectRatio="xMidYMid meet">
<metadata>
Created by potrace 1.11, written by Peter Selinger 2001-2013
</metadata>
<g transform="translate(0.000000,1179.000000) scale(0.100000,-0.100000)"
fill="#000000" stroke="none">
<path d="M5663 11766 c-39 -8 -96 -25 -125 -38 -268 -123 -4112 -2305 -4509
-2559 -139 -89 -264 -251 -309 -399 -42 -136 -42 -189 -47 -2555 -5 -2585 0
-2857 53 -3105 44 -201 132 -283 659 -612 879 -549 2776 -1675 3675 -2182 476
-269 583 -309 820 -309 231 1 253 10 894 375 1544 881 3951 2326 4084 2451 89
84 189 246 216 350 39 151 41 264 41 2697 0 2818 1 2778 -93 2953 -57 105
-118 175 -207 235 -423 283 -3570 2102 -4410 2549 -176 94 -228 118 -304 139
-78 22 -343 28 -438 10z m349 -530 c122 -13 171 -37 963 -489 937 -535 2386
-1378 3100 -1805 423 -253 462 -293 501 -517 35 -205 37 -300 41 -2305 5
-2031 -1 -2442 -33 -2627 -17 -103 -69 -215 -142 -313 -54 -72 -41 -63 -617
-415 -1221 -747 -2684 -1628 -3090 -1859 -232 -133 -542 -286 -647 -319 -212
-69 -344 -52 -577 70 -457 240 -2525 1466 -3551 2106 -665 414 -705 450 -744
667 -38 204 -39 287 -43 2671 l-4 2336 60 101 c41 66 83 120 127 161 121 114
429 306 1329 831 1351 788 2654 1529 2833 1612 136 63 340 113 417 102 11 -1
46 -5 77 -8z"/>
<path d="M5689 10810 c-76 -9 -118 -29 -429 -203 -767 -429 -2958 -1702 -3370
-1958 -277 -172 -302 -224 -332 -669 -18 -268 -18 -3828 0 -4090 30 -434 57
-494 297 -652 421 -277 3475 -2065 3729 -2184 112 -52 306 -69 452 -38 201 41
486 200 2529 1407 1134 670 1370 817 1486 924 50 47 71 75 105 148 91 194 89
143 89 2450 0 2296 1 2275 -86 2446 -72 144 -170 215 -839 606 -685 401 -2357
1363 -2665 1533 -197 109 -447 232 -517 254 -111 35 -286 45 -449 26z m1656
-3361 c218 -48 372 -113 555 -235 221 -147 343 -284 396 -446 25 -74 28 -98
28 -218 1 -153 -13 -218 -70 -337 -46 -97 -116 -178 -203 -237 -78 -53 -118
-94 -127 -132 -9 -35 9 -50 68 -57 110 -13 319 -143 427 -264 57 -64 101 -162
101 -226 0 -55 -53 -184 -110 -267 -193 -284 -647 -516 -1155 -591 -158 -23
-243 -24 -293 -4 -20 9 -74 53 -119 97 -45 45 -84 80 -86 77 -2 -2 -29 -36
-60 -75 -74 -95 -103 -117 -141 -110 -41 8 -74 42 -86 86 -23 85 -30 297 -42
1223 -17 1418 -4 1616 110 1664 32 13 50 13 143 2 126 -15 212 -4 304 36 31
14 74 30 94 35 47 12 154 3 266 -21z m-1943 -89 c180 -13 232 -32 314 -114 70
-71 108 -142 130 -246 35 -167 -32 -308 -176 -374 -139 -63 -251 -77 -674 -83
l-359 -5 7 -217 c3 -119 9 -497 12 -841 7 -643 3 -764 -32 -881 -28 -92 -91
-138 -191 -139 -41 0 -41 8 -3 42 17 14 30 30 30 36 0 5 -13 26 -30 47 -34 43
-37 52 -53 147 -12 68 -14 73 -39 76 -17 2 -30 11 -35 25 -24 68 21 1161 63
1540 9 81 15 149 13 151 -2 2 -139 11 -304 20 -690 39 -781 68 -885 287 -62
131 -63 166 -9 270 54 100 114 170 173 197 62 29 183 52 327 61 183 12 1562
12 1721 1z"/>
<path d="M6483 7264 c-24 -37 -31 -265 -11 -334 19 -62 49 -67 71 -11 32 80
47 295 24 341 -18 37 -61 39 -84 4z"/>
<path d="M6846 6769 c-2 -13 -10 -175 -16 -359 -22 -673 -50 -1175 -76 -1373
-9 -65 -14 -120 -11 -123 2 -2 46 16 98 41 118 57 192 72 399 85 294 18 568
77 748 162 78 37 112 65 151 126 51 80 40 167 -28 225 -113 95 -333 141 -746
157 -324 12 -385 27 -385 90 0 37 50 85 103 98 23 6 78 14 122 17 118 9 218
32 331 76 246 96 424 248 424 361 0 42 -38 124 -80 171 -65 75 -234 168 -380
210 -131 37 -228 49 -437 54 l-212 5 -5 -23z"/>
<path d="M7335 5015 c-235 -14 -295 -21 -343 -41 -28 -11 -33 -18 -30 -41 6
-51 38 -58 268 -58 151 1 230 5 299 18 136 25 221 66 221 107 0 34 -60 36
-415 15z"/>
<path d="M3365 7271 c-47 -29 -71 -60 -111 -145 -48 -100 -53 -184 -15 -256
30 -57 146 -170 199 -194 77 -35 92 1 42 94 -101 184 -110 243 -60 392 18 54
30 104 26 113 -7 20 -45 19 -81 -4z"/>
</g>
</svg>
